# xmcd
#
# Track frame offsets: 
#        150
#        16749
#        50399
#        87151
#        114782
#        160142
#
# Disc length: 4770 seconds
#
# Revision: 0
# Processed by: cddbd v1.5.2PL0 Copyright (c) Steve Scherf et al.
# Submitted via: ExactAudioCopy v0.95b4
#
DISCID=3512a006
DTITLE=Schwarze Puppen - Tanz!
DYEAR=1900
DGENRE=
TTITLE0=Airplay Mix
TTITLE1=Schwarze Puppen Mix
TTITLE2=Skysurfer Mix
TTITLE3=I love Nina Hagen Mix
TTITLE4=Marc Acardipane Mix
TTITLE5=Video
EXTD=
EXTT0=
EXTT1=
EXTT2=
EXTT3=
EXTT4=
EXTT5=
PLAYORDER=
